<svg xmlns="http://www.w3.org/2000/svg" width="100%" height="100%" viewBox="-98.5 170.5 197 59" stroke-width="0" stroke="#ed1566" fill="#0e3c53"><path d="M88.1 170.5c-.1.9-.3 1.7-.4 2.5-1.3 8.5-4.1 16.3-10.6 22.4-8.2 7.7-18.2 9.6-28.8 7.4-6.4-1.3-12.8-3.6-18.9-6C19.6 193-5.2 183-7.9 181.9c-11.8-4.7-23.5-9.5-36.4-10.6-11.4-1-22 1.2-31.5 8-11.3 8.2-17.5 19.6-20.2 33-1.1 5.6-1.7 11.4-2.5 17.2h10.4c.1-.9.3-1.7.4-2.5 1.3-8.5 4.1-16.3 10.6-22.4 8.2-7.7 18.2-9.6 28.8-7.4 6.4 1.3 12.8 3.6 18.9 6 9.8 3.8 34.6 13.8 37.3 14.9 11.8 4.7 23.5 9.5 36.4 10.6 11.4 1 22-1.2 31.5-8 11.3-8.1 17.5-19.5 20.2-33 1.1-5.6 1.7-11.4 2.5-17.2H88.1z"/></svg>