<?xml version="1.0" standalone="no"?>
<!DOCTYPE svg PUBLIC "-//W3C//DTD SVG 20010904//EN"
 "http://www.w3.org/TR/2001/REC-SVG-20010904/DTD/svg10.dtd">
<svg version="1.0" xmlns="http://www.w3.org/2000/svg"
 width="932.000000pt" height="932.000000pt" viewBox="0 0 932.000000 932.000000"
 preserveAspectRatio="xMidYMid meet">
<metadata>
Created by potrace 1.11, written by Peter Selinger 2001-2013
</metadata>
<g transform="translate(0.000000,932.000000) scale(0.100000,-0.100000)"
fill="#000000" stroke="none">
<path d="M4616 9101 c-4 -5 6 -11 21 -14 16 -2 -3 -3 -42 -3 -79 1 -389 -13
-426 -19 -13 -2 -53 -6 -89 -9 -190 -18 -414 -57 -610 -107 -199 -51 -260 -70
-254 -81 3 -4 -2 -5 -10 -2 -20 8 -118 -25 -111 -37 4 -5 -1 -6 -9 -3 -18 7
-296 -94 -296 -108 0 -5 -4 -7 -8 -4 -9 5 -18 1 -232 -102 -307 -149 -558
-306 -820 -516 -69 -55 -130 -105 -136 -111 -6 -5 -40 -35 -75 -64 -118 -101
-390 -380 -489 -501 -25 -30 -47 -57 -51 -60 -14 -12 -143 -185 -211 -285
-193 -281 -336 -550 -462 -867 -54 -137 -133 -377 -162 -493 -4 -16 -8 -34
-10 -40 -10 -33 -74 -359 -79 -404 -4 -30 -8 -62 -10 -71 -2 -9 -6 -41 -9 -71
-3 -30 -9 -88 -13 -129 -16 -153 -8 -657 12 -820 25 -203 62 -409 102 -558 14
-54 31 -119 38 -147 67 -266 264 -718 440 -1010 105 -176 261 -401 341 -495
12 -14 57 -68 100 -120 108 -130 363 -383 514 -510 536 -452 1150 -772 1830
-957 30 -8 62 -16 71 -18 8 -2 44 -10 80 -19 83 -20 227 -48 309 -61 14 -2 36
-6 50 -9 65 -12 243 -32 380 -43 123 -10 629 -10 745 0 582 50 1058 170 1590
399 106 46 396 198 515 270 168 101 456 302 500 348 3 3 41 34 85 70 170 139
362 327 540 531 59 67 204 256 280 364 180 257 354 582 465 870 23 61 46 119
51 130 49 110 150 492 184 695 9 52 18 105 20 116 2 12 6 48 10 80 4 33 8 70
11 83 26 169 26 776 -1 932 -2 13 -6 46 -9 73 -5 43 -12 86 -41 255 -16 90
-36 177 -86 361 -54 199 -163 484 -263 690 -68 140 -142 277 -186 345 -11 17
-23 37 -27 45 -12 26 -169 260 -204 305 -5 5 -47 59 -94 119 -185 237 -415
472 -685 700 -117 99 -513 376 -537 376 -3 0 -14 6 -22 14 -9 7 -43 28 -76 46
-33 18 -76 42 -95 53 -78 44 -272 138 -375 181 -60 26 -119 52 -130 57 -27 12
-201 75 -295 105 -293 96 -668 187 -860 209 -30 3 -62 8 -70 10 -8 2 -51 7
-94 10 -43 4 -86 8 -95 10 -9 1 -70 6 -136 9 -66 4 -157 9 -201 12 -50 3 -84
2 -88 -5z m162 -18 c-21 -2 -55 -2 -75 0 -21 2 -4 4 37 4 41 0 58 -2 38 -4z"/>
</g>
</svg>
